<svg viewBox="0 0 100 100" fill="none" xmlns="http://www.w3.org/2000/svg">
  <defs>
    <linearGradient id="svcGrad" x1="0%" y1="0%" x2="100%" y2="100%">
      <stop offset="0%" stop-color="#D11039"/>
      <stop offset="100%" stop-color="#FF2D55"/>
    </linearGradient>
    <filter id="svcGlow">
      <feGaussianBlur stdDeviation="3" result="blur"/>
      <feMerge><feMergeNode in="blur"/><feMergeNode in="SourceGraphic"/></feMerge>
    </filter>
  </defs>
  <path d="M50 88C50 88 10 62 10 35C10 20 22 10 35 10C42 10 48 14 50 18C52 14 58 10 65 10C78 10 90 20 90 35C90 62 50 88 50 88Z"
        fill="url(#svcGrad)" filter="url(#svcGlow)" opacity="0.3"/>
  <path d="M50 78C50 78 20 56 20 35C20 24 28 16 37 16C43 16 47 19 50 24C53 19 57 16 63 16C72 16 80 24 80 35C80 56 50 78 50 78Z"
        fill="url(#svcGrad)" filter="url(#svcGlow)"/>
  <path d="M15 48 L35 48 L40 35 L45 60 L50 30 L55 55 L60 42 L65 48 L85 48"
        stroke="white" stroke-width="2.5" stroke-linecap="round" stroke-linejoin="round" fill="none" opacity="0.9"/>
</svg>
